<?xml version="1.0" encoding="UTF-8" standalone="no"?>
<svg width="60px" height="60px" viewBox="0 0 60 60" version="1.1" xmlns="http://www.w3.org/2000/svg" xmlns:xlink="http://www.w3.org/1999/xlink" xmlns:sketch="http://www.bohemiancoding.com/sketch/ns">
    <!-- Generator: Sketch 3.2.2 (9983) - http://www.bohemiancoding.com/sketch -->
    <title>Poinpin</title>
    <desc>Created with Sketch.</desc>
    <defs></defs>
    <g id="stroked" stroke="none" stroke-width="1" fill="none" fill-rule="evenodd" sketch:type="MSPage">
        <g id="Transport" sketch:type="MSLayerGroup" transform="translate(-479.000000, 2.000000)" stroke="#535353" stroke-width="2" stroke-linecap="round" stroke-linejoin="round">
            <g id="Pointpin" transform="translate(487.000000, 3.000000)" sketch:type="MSShapeGroup">
                <path d="M23,42 C23,42 39,24.836556 39,16 C39,7.163444 31.836556,0 23,0 C14.163444,0 7,7.163444 7,16 C7,24.836556 23,42 23,42 Z" id="Oval-1464"></path>
                <path d="M18.5041818,37.2000879 C11.8562434,37.8071622 7,39.7263566 7,42 C7,44.7614237 14.163444,47 23,47 C31.836556,47 39,44.7614237 39,42 C39,39.7546546 34.2638866,37.8549899 27.7432016,37.2233629" id="Oval-1466"></path>
                <path d="M16.577345,35.100044 C7.08020484,36.146944 0.142652103,39.4565964 0.142652103,43.3774961 C0.142652103,48.1395735 10.3762353,52 23,52 C35.6237647,52 45.8573479,48.1395735 45.8573479,43.3774961 C45.8573479,39.5053961 39.0914109,36.229423 29.7760631,35.1401817" id="Oval-1467"></path>
                <circle id="Oval-1465" cx="23" cy="13" r="5"></circle>
            </g>
        </g>
    </g>
</svg>