<?xml version="1.0" encoding="utf-8"?>
<!-- Generator: Adobe Illustrator 17.1.0, SVG Export Plug-In . SVG Version: 6.00 Build 0)  -->
<!DOCTYPE svg PUBLIC "-//W3C//DTD SVG 1.1//EN" "http://www.w3.org/Graphics/SVG/1.1/DTD/svg11.dtd">
<svg version="1.1" id="Shape_5_1_" xmlns="http://www.w3.org/2000/svg" xmlns:xlink="http://www.w3.org/1999/xlink" x="0px" y="0px"
	 width="512px" height="512px" viewBox="0 0 512 512" enable-background="new 0 0 512 512" xml:space="preserve">
<g id="Shape_5">
	<g>
		<path fill-rule="evenodd" clip-rule="evenodd" d="M512,294c-0.1-51.5-41.7-93.2-93-93.2H53.2c22.3-27.2,63.6-77.8,63.6-77.8h-39
			c0,0-77.5,93.6-77.5,94.1c0,0.1,77.5,92.5,77.5,92.5h39c0,0-43.7-51.9-65.5-77.8H419c34.2,0,62,27.9,62,62.2
			c0,34.4-27.8,62.2-62,62.2H233v31.1h186c51.3,0,92.9-41.7,93-93.2V294z"/>
	</g>
</g>
</svg>
