<?xml version="1.0" encoding="UTF-8" standalone="no"?>
<svg width="60px" height="60px" viewBox="0 0 60 60" version="1.1" xmlns="http://www.w3.org/2000/svg" xmlns:xlink="http://www.w3.org/1999/xlink" xmlns:sketch="http://www.bohemiancoding.com/sketch/ns">
    <!-- Generator: Sketch 3.2.2 (9983) - http://www.bohemiancoding.com/sketch -->
    <title>Mailsend</title>
    <desc>Created with Sketch.</desc>
    <defs></defs>
    <g id="stroked" stroke="none" stroke-width="1" fill="none" fill-rule="evenodd" sketch:type="MSPage">
        <g id="Tech" sketch:type="MSLayerGroup" transform="translate(-718.000000, -129.000000)" stroke="#008cff" stroke-width="2">
            <g id="Mailsend" transform="translate(724.000000, 130.000000)" sketch:type="MSShapeGroup">
                <g id="Group" transform="translate(22.183013, 19.683013) rotate(-30.000000) translate(-22.183013, -19.683013) translate(4.183013, 7.683013)">
                    <rect id="Rectangle-323" x="-1.13686838e-13" y="1.95399252e-13" width="35" height="23" rx="2"></rect>
                    <path d="M2,1.77635684e-13 L33,1.77635684e-13 L17.5,14 L2,1.77635684e-13 Z" id="Triangle-17" stroke-linejoin="round"></path>
                    <path d="M12.5,9.5 L0.5,22.5" id="Line"></path>
                    <path d="M34.5,9.5 L22.5,22.5" id="Line" transform="translate(28.500000, 16.000000) scale(-1, 1) translate(-28.500000, -16.000000) "></path>
                </g>
                <g id="Line-+-Rectangle-323" transform="translate(38.531089, 34.116025) rotate(-30.000000) translate(-38.531089, -34.116025) translate(27.031089, 29.116025)">
                    <path d="M1.46410162,5.1339746 L21.4641016,5.1339746" id="Line" stroke-linecap="square"></path>
                    <path d="M14.9641016,2.1339746 L20.9641016,2.1339746 L20.9641016,8.1339746" id="Rectangle-320" stroke-linecap="round" stroke-linejoin="round" transform="translate(17.964102, 5.133975) rotate(-315.000000) translate(-17.964102, -5.133975) "></path>
                </g>
                <g id="Line-+-Rectangle-323" transform="translate(28.531089, 51.116025) rotate(-30.000000) translate(-28.531089, -51.116025) translate(17.031089, 46.116025)">
                    <path d="M1.46410162,5.1339746 L21.4641016,5.1339746" id="Line" stroke-linecap="square"></path>
                    <path d="M14.9641016,2.1339746 L20.9641016,2.1339746 L20.9641016,8.1339746" id="Rectangle-320" stroke-linecap="round" stroke-linejoin="round" transform="translate(17.964102, 5.133975) rotate(-315.000000) translate(-17.964102, -5.133975) "></path>
                </g>
            </g>
        </g>
    </g>
</svg>