<?xml version="1.0" encoding="UTF-8" standalone="no"?>
<svg width="60px" height="60px" viewBox="0 0 60 60" version="1.1" xmlns="http://www.w3.org/2000/svg" xmlns:xlink="http://www.w3.org/1999/xlink" xmlns:sketch="http://www.bohemiancoding.com/sketch/ns">
    <!-- Generator: Sketch 3.2.2 (9983) - http://www.bohemiancoding.com/sketch -->
    <title>Sharethis</title>
    <desc>Created with Sketch.</desc>
    <defs></defs>
    <g id="stroked" stroke="none" stroke-width="1" fill="none" fill-rule="evenodd" sketch:type="MSPage">
        <g id="Brands" sketch:type="MSLayerGroup" transform="translate(-357.000000, -236.000000)" stroke="#007aff" stroke-width="2">
            <g id="Sharethis" transform="translate(366.000000, 242.000000)" sketch:type="MSShapeGroup">
                <path d="M33.9618748,31.369442 C32.3263405,31.369442 30.8221743,31.9971758 29.608113,33.0430332 L15.0503246,24.8451799 C15.0503246,24.7957952 15.056893,24.747508 15.056893,24.6970259 C15.056893,24.6432515 15.0503246,24.5927694 15.0503246,24.5400924 L29.0990612,16.1216544 C30.4313539,17.4308965 32.158846,18.2276357 34.0527379,18.2276357 C38.2587104,18.2276357 41.671,14.3207605 41.671,9.50191527 C41.671,4.68307006 38.2576157,0.774 34.0516431,0.774 C29.8489548,0.774 26.4432336,4.675388 26.4366652,9.48874603 L12.2762656,18.0070509 C10.9800991,16.7976755 9.32923849,16.0711723 7.52949385,16.0711723 C3.37278436,16.0711723 0.001,19.93415 0.001,24.6970259 C0.001,29.457707 3.37278436,33.3195872 7.52949385,33.3195872 C9.32157535,33.3195872 10.9658676,32.5996687 12.2587498,31.4001702 L26.7223911,39.3050078 C26.7180121,39.4312131 26.7059701,39.5552234 26.7059701,39.684721 C26.7059701,44.2807865 29.9540493,48 33.9618748,48 C37.9697003,48 41.2199691,44.2796891 41.2199691,39.684721 C41.2199691,35.0930452 37.9707951,31.369442 33.9618748,31.369442 L33.9618748,31.369442 Z" id="Shape"></path>
            </g>
        </g>
    </g>
</svg>