<?xml version="1.0" encoding="UTF-8" standalone="no"?>
<svg width="60px" height="60px" viewBox="0 0 60 60" version="1.1" xmlns="http://www.w3.org/2000/svg" xmlns:xlink="http://www.w3.org/1999/xlink" xmlns:sketch="http://www.bohemiancoding.com/sketch/ns">
    <!-- Generator: Sketch 3.2.2 (9983) - http://www.bohemiancoding.com/sketch -->
    <title>Airbnb</title>
    <desc>Created with Sketch.</desc>
    <defs></defs>
    <g id="stroked" stroke="none" stroke-width="1" fill="none" fill-rule="evenodd" sketch:type="MSPage">
        <g id="Brands" sketch:type="MSLayerGroup" transform="translate(-117.000000, -476.000000)" stroke="#f93324" stroke-width="2">
            <g id="Airbnb" transform="translate(122.000000, 479.000000)" sketch:type="MSShapeGroup">
                <path d="M45.353,51.969 C50.374,48.688 51.887,42.612 49.13,36.595 C45.936,29.623 42.631,22.701 39.284,15.802 C37.464,12.052 35.601,8.308 33.498,4.714 C30.722,-0.031 25.037,-1.356 20.599,1.485 C18.601,2.764 17.376,4.694 16.348,6.761 C12.971,13.546 9.558,20.314 6.268,27.141 C4.44,30.934 2.596,34.748 1.173,38.702 C-0.862,44.355 1.852,50.362 7.295,52.852 C11.96,54.986 16.317,53.93 20.34,51.159 C22.17,49.899 23.782,48.318 25.863,46.572 C26.146,46.977 26.378,47.512 26.777,47.844 C28.458,49.245 30.063,50.8 31.926,51.906 C36.327,54.521 40.91,54.871 45.353,51.969 L45.353,51.969 Z" id="Path"></path>
                <path d="M25.511,40.592 C22.924,36.975 20.449,33.612 20.187,29.203 C20.054,26.962 20.752,25.091 22.877,24.06 C25.031,23.015 27.163,23.162 29.07,24.645 C31.141,26.255 31.146,28.565 30.679,30.812 C29.922,34.452 27.88,37.463 25.511,40.592 L25.511,40.592 Z" id="Path"></path>
                <path d="M28.466,43.828 C28.325,42.947 29.487,41.823 30.145,40.853 C32.249,37.748 33.988,34.498 34.666,30.741 C35.578,25.695 32.746,21.019 27.979,19.83 C22.983,18.583 17.995,21.264 16.654,25.932 C15.794,28.927 16.213,31.885 17.52,34.585 C18.879,37.393 20.587,40.041 22.281,42.67 C22.816,43.5 22.879,43.98 22.119,44.55 C20.019,46.125 18.088,48.039 15.78,49.201 C11.541,51.334 6.869,49.521 5.046,45.405 C4.083,43.231 4.154,41.008 5.158,38.883 C9.2,30.329 13.273,21.789 17.368,13.26 C18.338,11.24 19.445,9.287 20.47,7.293 C22.767,2.826 28.353,2.796 30.557,7.293 C35.729,17.839 40.927,28.375 45.907,39.012 C48.038,43.564 45.623,48.447 41.01,49.737 C40.288,49.939 39.515,49.955 38.766,50.057 C35.58,50.015 33.151,48.358 30.876,46.41 C29.961,45.626 28.622,44.796 28.466,43.828 L28.466,43.828 Z" id="Path"></path>
            </g>
        </g>
    </g>
</svg>