<?xml version="1.0" encoding="UTF-8" standalone="no"?>
<svg width="60px" height="60px" viewBox="0 0 60 60" version="1.1" xmlns="http://www.w3.org/2000/svg" xmlns:xlink="http://www.w3.org/1999/xlink" xmlns:sketch="http://www.bohemiancoding.com/sketch/ns">
    <!-- Generator: Sketch 3.2.2 (9983) - http://www.bohemiancoding.com/sketch -->
    <title>Humantarget</title>
    <desc>Created with Sketch.</desc>
    <defs></defs>
    <g id="stroked" stroke="none" stroke-width="1" fill="none" fill-rule="evenodd" sketch:type="MSPage">
        <g id="Marketing" sketch:type="MSLayerGroup" transform="translate(-718.000000, -950.000000)" stroke="#b1d9e7" stroke-width="2" stroke-linejoin="round">
            <g id="Humantarget" transform="translate(720.000000, 952.000000)" sketch:type="MSShapeGroup">
                <path d="M18.4581272,25.9511894 C19.7327101,30.6162482 23.5227387,34 28,34 C32.4772613,34 36.2672899,30.6162482 37.5418728,25.9511894 L37.5418728,25.9511894 C38.9400728,25.6961217 40,24.4718405 40,23 C40,21.6138405 39.059885,20.4472565 37.7824737,20.1030668 C36.8236354,14.9022841 32.8080904,11 28,11 C23.1919096,11 19.1763646,14.9022841 18.2175263,20.1030668 C16.940115,20.4472565 16,21.6138405 16,23 C16,24.4718405 17.0599272,25.6961217 18.4581272,25.9511894 Z" id="Oval-1406" stroke-linecap="round"></path>
                <circle id="Oval-1415" stroke-linecap="round" cx="28" cy="28" r="28"></circle>
                <path d="M56,28 L49,28" id="Line" stroke-linecap="square"></path>
                <path d="M28,0 L28,6" id="Line" stroke-linecap="square"></path>
                <path d="M28,50 L28,56" id="Line" stroke-linecap="square"></path>
                <path d="M7,28 L0,28" id="Line" stroke-linecap="square"></path>
                <path d="M39,45 C39,38.9248678 34.0751322,34 28,34 C21.9248678,34 17,38.9248678 17,45 L39,45 Z" id="Oval-1404" stroke-linecap="round"></path>
            </g>
        </g>
    </g>
</svg>