<?xml version="1.0" encoding="UTF-8" standalone="no"?>
<svg width="60px" height="60px" viewBox="0 0 60 60" version="1.1" xmlns="http://www.w3.org/2000/svg" xmlns:xlink="http://www.w3.org/1999/xlink" xmlns:sketch="http://www.bohemiancoding.com/sketch/ns">
    <!-- Generator: Sketch 3.2.2 (9983) - http://www.bohemiancoding.com/sketch -->
    <title>Timelapse</title>
    <desc>Created with Sketch.</desc>
    <defs></defs>
    <g id="stroked" stroke="none" stroke-width="1" fill="none" fill-rule="evenodd" sketch:type="MSPage">
        <g id="Marketing" sketch:type="MSLayerGroup" transform="translate(-718.000000, -1310.000000)" stroke="#535353" stroke-width="2" stroke-linecap="round" stroke-linejoin="round">
            <g id="Timelapse" transform="translate(731.000000, 1313.000000)" sketch:type="MSShapeGroup">
                <path d="M3,5 C3,17.1502645 9.2680135,27 17,27 C24.7319865,27 31,17.1502645 31,5 L3,5 Z" id="Oval-1448"></path>
                <path d="M5.99912773,18.6087137 C8.56276723,23.7191533 12.5375664,27 17,27 C22.1973472,27 26.733218,22.5495302 29.1485341,15.941428 L5.99912773,18.6087137 Z" id="Oval-1449"></path>
                <polygon id="Triangle-51" points="17 41 21 49 13 49 "></polygon>
                <path d="M17,30 L17,28" id="Line"></path>
                <path d="M17,36 L17,34" id="Line-360"></path>
                <path d="M3,27 C3,39.1502645 9.2680135,49 17,49 C24.7319865,49 31,39.1502645 31,27 L3,27 Z" id="Oval-1448" transform="translate(17.000000, 38.000000) scale(1, -1) translate(-17.000000, -38.000000) "></path>
                <rect id="Rectangle-1662" x="0" y="0" width="34" height="6" rx="6"></rect>
                <rect id="Rectangle-1662" x="0" y="48" width="34" height="6" rx="6"></rect>
            </g>
        </g>
    </g>
</svg>