<svg width="200" height="200" xmlns="http://www.w3.org/2000/svg"><g fill="none" fill-rule="evenodd"><path d="M0 0h200v200H0z"/><g transform="translate(41 55)"><path d="M1.31 0h114.8a.7.7 0 0 1 .7.7v89.6a.7.7 0 0 1-.7.7H1.31a.7.7 0 0 1-.7-.7V.7a.7.7 0 0 1 .7-.7z" stroke="#ABABAB" stroke-width="1.5"/><path d="M117.194 91c.078-8.442-.155-13.108-.7-14-18.526-30.319-27.223-39.2-33.96-39.2-11.79 0-21.894 26.25-33.683 26.25-11.79 0-18.457-13.65-25.263-13.475C16.782 50.75 7.994 60.2.994 70c-.68.953-.7 6.212-.7 7.7v11.2c0 1.16.94 2.1 2.1 2.1h114.8z" fill="#ABABAB"/><circle fill="#ABABAB" cx="41.244" cy="26.25" r="8.05"/></g></g></svg>