<?xml version="1.0" encoding="UTF-8" standalone="no"?>
<svg width="60px" height="60px" viewBox="0 0 60 60" version="1.1" xmlns="http://www.w3.org/2000/svg" xmlns:xlink="http://www.w3.org/1999/xlink" xmlns:sketch="http://www.bohemiancoding.com/sketch/ns">
    <!-- Generator: Sketch 3.2.2 (9983) - http://www.bohemiancoding.com/sketch -->
    <title>Dollarpaper</title>
    <desc>Created with Sketch.</desc>
    <defs></defs>
    <g id="stroked" stroke="none" stroke-width="1" fill="none" fill-rule="evenodd" sketch:type="MSPage">
        <g id="Marketing" sketch:type="MSLayerGroup" transform="translate(-238.000000, -350.000000)" stroke="#535353" stroke-width="2" stroke-linejoin="round">
            <g id="Dollarpaper" transform="translate(240.000000, 371.000000)" sketch:type="MSShapeGroup">
                <path d="M1.07692308,12.0726789 C1.07692308,8.04845257 0,0 0,0 C0,0 18.6666667,2.08 28,2.08 C37.3333333,2.08 56,0 56,0 C56,0 54.9230769,7.57894796 54.9230769,11.3684219 C54.9230769,15.5522813 56,23.92 56,23.92 C56,23.92 37.3333333,26 28,26 C18.6666667,26 0,23.92 0,23.92 C0,23.92 1.07692308,16.0217859 1.07692308,12.0726789 Z" id="Rectangle-1476" stroke-linecap="round"></path>
                <path d="M31,11 C31,9.34314575 29.6568542,8 28,8 C26.3431458,8 25,9.34314575 25,11 C25,12.6568542 26.3431458,14 28,14" id="Oval-1376" stroke-linecap="round"></path>
                <path d="M28,20 L28,22" id="Line" stroke-linecap="round"></path>
                <path d="M28,6 L28,8" id="Line-322" stroke-linecap="round"></path>
                <path d="M25,17 C25,18.6568542 26.3431458,20 28,20 C29.6568542,20 31,18.6568542 31,17 C31,15.3431458 29.6568542,14 28,14" id="Oval-1376" stroke-linecap="round"></path>
                <path d="M47,4 L52,4" id="Line" stroke-linecap="square"></path>
                <path d="M4,4 L9,4" id="Line" stroke-linecap="square"></path>
                <path d="M47,21 L52,21" id="Line" stroke-linecap="square"></path>
                <path d="M4,21 L9,21" id="Line" stroke-linecap="square"></path>
            </g>
        </g>
    </g>
</svg>