<?xml version="1.0" encoding="UTF-8" standalone="no"?>
<svg width="60px" height="60px" viewBox="0 0 60 60" version="1.1" xmlns="http://www.w3.org/2000/svg" xmlns:xlink="http://www.w3.org/1999/xlink" xmlns:sketch="http://www.bohemiancoding.com/sketch/ns">
    <!-- Generator: Sketch 3.2.2 (9983) - http://www.bohemiancoding.com/sketch -->
    <title>Shazam</title>
    <desc>Created with Sketch.</desc>
    <defs></defs>
    <g id="stroked" stroke="none" stroke-width="1" fill="none" fill-rule="evenodd" sketch:type="MSPage">
        <g id="Brands" sketch:type="MSLayerGroup" transform="translate(-597.000000, -356.000000)" stroke="#535353" stroke-width="2">
            <g id="Shazam" transform="translate(601.000000, 360.000000)" sketch:type="MSShapeGroup">
                <path d="M31.1823273,36.6157241 C32.6186727,35.3038966 33.9808364,33.9101379 35.3281636,32.5098621 C37.23,30.5332759 37.2003273,27.7476207 35.3114727,26.0242759 C33.4133455,24.2934828 30.6602727,24.4908621 28.7278364,26.4506897 C27.2887091,27.9105517 25.8662727,29.3964828 24.3195818,30.7418276 C21.1705636,33.4818621 15.8248364,33.3524483 12.7305273,30.5537586 C8.68205455,26.891069 8.40294545,21.357 12.1917818,17.4485172 C15.3658364,14.175 18.6632182,11.016 21.9198,7.81975862 C23.1892364,6.57310345 23.6751273,5.09368966 23.2263273,3.40013793 C22.7645455,1.65910345 21.5822727,0.577241379 19.7759455,0.183413793 C19.6071818,0.146172414 19.4476909,0.0623793103 19.2844909,0 L18.4286182,0 C16.8782182,0.341689655 15.7200545,1.27086207 14.6379273,2.36110345 C11.6085273,5.41210345 8.51607273,8.40351724 5.50985455,11.4768621 C2.7132,14.3351379 1.06265455,17.7566897 0.630545455,21.7247586 C0.619201054,21.8282216 0.498701982,22.5372032 0.500000002,23.5 C0.501248335,24.4259416 0.623597716,25.6059531 0.647236364,25.7552069 C1.75996364,32.8068621 5.48481818,38.0066897 12.3549818,40.4413448 C19.2789273,42.8955517 25.7012182,41.6218966 31.1823273,36.6157241 Z" id="Path"></path>
                <path d="M45.2218569,47.6878584 C46.6582024,46.3760308 48.020366,44.9822722 49.3676933,43.5819964 C51.2695297,41.6054101 51.2398569,38.819755 49.3510024,37.0964101 C47.4528751,35.365617 44.6998024,35.5629964 42.767366,37.5228239 C41.3282388,38.982686 39.9058024,40.468617 38.3591115,41.8139619 C35.2100933,44.5539964 29.864366,44.4245826 26.7700569,41.6258929 C22.7215842,37.9632033 22.4424751,32.4291343 26.2313115,28.5206515 C29.405366,25.2471343 32.7027478,22.0881343 35.9593297,18.8918929 C37.228766,17.6452377 37.7146569,16.1658239 37.2658569,14.4722722 C36.8040751,12.7312377 35.6218024,11.6493757 33.8154751,11.2555481 C33.6467115,11.2183067 33.4872206,11.1345136 33.3240206,11.0721343 L32.4681478,11.0721343 C30.9177478,11.4138239 29.7595842,12.3429964 28.6774569,13.4332377 C25.6480569,16.4842377 22.5556024,19.4756515 19.5493842,22.5489964 C16.7527297,25.4072722 15.1021842,28.8288239 14.6700751,32.7968929 C14.6587307,32.9003559 14.5382316,33.6093375 14.5395297,34.5721343 C14.540778,35.4980759 14.6631274,36.6780874 14.686766,36.8273412 C15.7994933,43.8789964 19.5243478,49.0788239 26.3945115,51.5134791 C33.3184569,53.967686 39.7407478,52.6940308 45.2218569,47.6878584 Z" id="Path-6" transform="translate(32.660215, 31.898614) rotate(-180.000000) translate(-32.660215, -31.898614) "></path>
            </g>
        </g>
    </g>
</svg>